# xmcd
#
# Track frame offsets:
#	150
#	21726
#	48435
#	80070
#	102191
#	128317
#	140899
#	167110
#	191950
#	229178
#	254833
#	287631
#
# Disc length: 4217 seconds
#
# Revision: 1
# Processed by: cddbd v1.5.2PL0 Copyright (c) Steve Scherf et al.
# Submitted via: audiograbber 1.83.01
#
DISCID=b810770c
DTITLE=Schau Pau Acustic Blus - Live
DYEAR=2006
DGENRE=Acoustic Blus
TTITLE0=Talk To Your Daughter - J.B. Lenoir 
TTITLE1=I Wish You Would - B.B. Arnold 
TTITLE2=The Thrill Is Gone - B.B.King 
TTITLE3=Worried Live Blues - M. Merriweather 
TTITLE4=Sweet Home Chicago - R.Johnson 
TTITLE5=I Gonna Misss You - M. Waters 
TTITLE6=Catfish Blues - Trad
TTITLE7=My Broom - R. Dust Johnson 
TTITLE8=In The Mood - J.L Hooker 
TTITLE9=Too Much Trouble Everyday Blues - Szweda and B?eszy?ski
TTITLE10=Boogie Chillum - J.L.Hooker 
TTITLE11=Good Morning Love - Allison and Ulmer 
EXTD=Bogdan Szweda\nJan Galach\nArek Bleszynski\nAufgenommen in Katowitz
EXTT0=
EXTT1=
EXTT2=
EXTT3=
EXTT4=
EXTT5=
EXTT6=
EXTT7=
EXTT8=
EXTT9=
EXTT10=
EXTT11=
PLAYORDER=
